<svg width="98" height="98" viewBox="0 0 98 98" fill="none" xmlns="http://www.w3.org/2000/svg">
<path opacity="0.5" d="M96.7398 49C96.7398 75.5097 75.3073 97 48.8689 97C22.4306 97 0.998047 75.5097 0.998047 49C0.998047 22.4903 22.4306 1 48.8689 1C75.3073 1 96.7398 22.4903 96.7398 49ZM5.68705 49C5.68705 72.913 25.0202 92.2983 48.8689 92.2983C72.7176 92.2983 92.0508 72.913 92.0508 49C92.0508 25.087 72.7176 5.70166 48.8689 5.70166C25.0202 5.70166 5.68705 25.087 5.68705 49Z" fill="#F68080"/>
<path d="M94.5405 49C96.3055 49 97.7472 50.4327 97.6325 52.1939C96.8623 64.0234 91.834 75.2147 83.4232 83.6482C74.2586 92.8375 61.8288 98 48.8682 98C35.9075 98 23.4777 92.8375 14.3131 83.6482C5.90227 75.2147 0.873981 64.0234 0.103824 52.1939C-0.0108422 50.4327 1.43079 49 3.19577 49V49C4.96075 49 6.3791 50.4329 6.51099 52.1929C7.26995 62.3211 11.6207 71.8851 18.8327 79.1165C26.7986 87.1039 37.6027 91.5912 48.8682 91.5912C60.1337 91.5912 70.9377 87.1039 78.9037 79.1165C86.1156 71.8851 90.4664 62.3211 91.2253 52.1929C91.3572 50.4329 92.7756 49 94.5405 49V49Z" fill="#FF4948"/>
<ellipse cx="48.3701" cy="48.5" rx="34.4072" ry="34.5" stroke="#FDD8D8" stroke-width="2" stroke-linecap="round"/>
<path d="M60.1757 59.1459H52.9616C52.5634 59.1459 52.2402 58.8218 52.2402 58.4226C52.2402 58.0233 52.5634 57.6992 52.9616 57.6992H60.1757C61.3689 57.6992 62.3399 56.7256 62.3399 55.5291V54.0824C62.3399 53.6831 62.6631 53.3591 63.0613 53.3591H64.4912C64.8894 53.3591 65.2126 53.035 65.2126 52.6357V43.9555C65.2126 43.5562 64.8894 43.2321 64.4912 43.2321H63.0613C62.6631 43.2321 62.3399 42.9081 62.3399 42.5088V41.0621C62.3399 39.8657 61.3689 38.892 60.1757 38.892H55.8473C55.4491 38.892 55.1259 38.568 55.1259 38.1687C55.1259 37.7694 55.4491 37.4453 55.8473 37.4453H60.1757C62.1639 37.4453 63.7827 39.0685 63.7827 41.0621V41.7854H64.4912C65.6844 41.7854 66.6554 42.7591 66.6554 43.9555V52.6357C66.6554 53.8322 65.6844 54.8058 64.4912 54.8058H63.7827V55.5291C63.7827 57.5227 62.1639 59.1459 60.1757 59.1459Z" fill="#FF4948"/>
<path d="M41.2924 59.1459H35.5211C33.5329 59.1459 31.9141 57.5227 31.9141 55.5291V41.0621C31.9141 39.0685 33.5329 37.4453 35.5211 37.4453H45.6208C46.019 37.4453 46.3422 37.7694 46.3422 38.1687C46.3422 38.568 46.019 38.892 45.6208 38.892H35.5211C34.3279 38.892 33.3569 39.8657 33.3569 41.0621V55.5291C33.3569 56.7256 34.3279 57.6992 35.5211 57.6992H41.2924C41.6906 57.6992 42.0138 58.0233 42.0138 58.4226C42.0138 58.8218 41.6906 59.1459 41.2924 59.1459Z" fill="#FF4948"/>
<path d="M45.3996 62.0394C45.2856 62.0394 45.1687 62.0119 45.062 61.9554C44.7518 61.7905 44.6046 61.4245 44.7157 61.0889L47.737 51.9124H42.0768C41.8084 51.9124 41.5632 51.7634 41.4376 51.5247C41.3135 51.286 41.3309 50.9981 41.4838 50.7767L51.4767 36.3097C51.673 36.0261 52.0466 35.9248 52.3583 36.0579C52.6743 36.1968 52.8488 36.5397 52.7753 36.8768L50.7438 46.1256H56.5049C56.7791 46.1256 57.0301 46.2818 57.1528 46.5292C57.274 46.7766 57.2437 47.0717 57.0763 47.2902L45.971 61.7572C45.831 61.941 45.6175 62.0394 45.3996 62.0394ZM43.4547 50.4657H48.7354C48.9677 50.4657 49.1841 50.5771 49.3197 50.7652C49.4553 50.9532 49.4929 51.1948 49.4193 51.4162L47.4138 57.5054L55.039 47.5723H49.8464C49.6285 47.5723 49.4207 47.4725 49.2837 47.3017C49.1466 47.131 49.0946 46.9068 49.1408 46.6927L50.5779 40.1521L43.4547 50.4657Z" fill="#FF4948"/>
</svg>
