<svg width="98" height="98" viewBox="0 0 98 98" fill="none" xmlns="http://www.w3.org/2000/svg">
<path opacity="0.5" d="M96.7398 49C96.7398 75.5097 75.3073 97 48.8689 97C22.4306 97 0.998047 75.5097 0.998047 49C0.998047 22.4903 22.4306 1 48.8689 1C75.3073 1 96.7398 22.4903 96.7398 49ZM5.68705 49C5.68705 72.913 25.0202 92.2983 48.8689 92.2983C72.7176 92.2983 92.0508 72.913 92.0508 49C92.0508 25.087 72.7176 5.70166 48.8689 5.70166C25.0202 5.70166 5.68705 25.087 5.68705 49Z" fill="#F68080"/>
<path d="M94.5405 49C96.3055 49 97.7472 50.4327 97.6325 52.1939C96.8623 64.0234 91.834 75.2147 83.4232 83.6482C74.2586 92.8375 61.8288 98 48.8682 98C35.9075 98 23.4777 92.8375 14.3131 83.6482C5.90227 75.2147 0.873981 64.0234 0.103824 52.1939C-0.0108422 50.4327 1.43079 49 3.19577 49V49C4.96075 49 6.3791 50.4329 6.51099 52.1929C7.26995 62.3211 11.6207 71.8851 18.8327 79.1165C26.7986 87.1039 37.6027 91.5912 48.8682 91.5912C60.1337 91.5912 70.9377 87.1039 78.9037 79.1165C86.1156 71.8851 90.4664 62.3211 91.2253 52.1929C91.3572 50.4329 92.7756 49 94.5405 49V49Z" fill="#FF4948"/>
<path d="M58.5134 54.2339L51.0794 48.5L58.5134 42.7661C59.0853 42.3223 59.4206 41.6384 59.4216 40.9133C59.4183 40.1882 59.0811 39.5053 58.508 39.063L48.618 31.4797C48.5913 31.4593 48.5629 31.4412 48.5331 31.4255C48.1448 31.1488 47.6803 31.0001 47.2039 31C45.8976 31.0475 44.8663 32.129 44.8774 33.4396V43.6442L40.6284 40.0423C40.3847 39.8441 40.0713 39.7529 39.7596 39.7896C39.4479 39.8264 39.1642 39.9877 38.9728 40.2371L37.556 42.0845C37.1751 42.5849 37.2568 43.2976 37.741 43.6983L43.4912 48.5L37.7486 53.2957C37.2591 53.6952 37.174 54.4121 37.556 54.9158L38.9729 56.7629C39.1655 57.014 39.4516 57.1758 39.7656 57.2111C40.0795 57.2464 40.3943 57.1522 40.6375 56.95L44.8775 53.3558V63.5604C44.8664 64.8711 45.8979 65.9526 47.2043 66C47.6799 65.9998 48.1438 65.8515 48.5317 65.5754C48.562 65.5595 48.5909 65.5411 48.6181 65.5204L58.508 57.937C59.0829 57.4962 59.4205 56.8124 59.4216 56.0868C59.4227 55.3612 59.087 54.6764 58.5134 54.2339ZM57.8013 57.0102L47.9823 64.5391C47.9558 64.5536 47.9305 64.5701 47.9065 64.5884C47.706 64.7456 47.4591 64.8317 47.2045 64.8333C46.5449 64.7783 46.0383 64.2241 46.041 63.5604V52.0988C46.041 51.8718 45.9096 51.6653 45.7041 51.5697C45.4987 51.4742 45.2566 51.5068 45.0837 51.6534L39.895 56.0515L38.4857 54.1984L44.7727 48.9484C44.9053 48.8375 44.982 48.6732 44.982 48.5001C44.982 48.3269 44.9053 48.1626 44.7727 48.0518L38.4781 42.7958L39.8864 40.941L45.0837 45.3467C45.2566 45.4933 45.4987 45.526 45.7041 45.4304C45.9095 45.3348 46.041 45.1283 46.0409 44.9012V33.4396C46.0382 32.776 46.5447 32.2219 47.2042 32.1667C47.4588 32.1682 47.7058 32.2544 47.9064 32.4116C47.9301 32.4298 47.9552 32.4461 47.9814 32.4604L57.8013 39.9899C58.0887 40.2103 58.2576 40.5523 58.258 40.915C58.2585 41.2779 58.0907 41.6203 57.8038 41.8415L49.7705 48.0378C49.6274 48.1482 49.5436 48.319 49.5436 48.5001C49.5436 48.6812 49.6274 48.8519 49.7705 48.9624L57.8038 55.1586C58.0907 55.3798 58.2586 55.7222 58.258 56.0851C58.2576 56.4478 58.0887 56.7898 57.8013 57.0102Z" fill="#FF4948"/>
<path d="M48.949 45.5739C49.2703 45.5739 49.5307 45.3128 49.5307 44.9906V38.0547L53.2699 40.9217L50.9212 42.7333C50.668 42.9302 50.6213 43.2953 50.8167 43.5499C51.0121 43.8046 51.3761 43.8528 51.6308 43.6578L54.5806 41.3826C54.7239 41.272 54.8078 41.1008 54.8075 40.9194C54.8072 40.7381 54.7228 40.5671 54.5791 40.4569L49.3024 36.4109C49.1265 36.2762 48.8897 36.2531 48.6912 36.3514C48.4928 36.4497 48.3673 36.6524 48.3672 36.8743V44.9906C48.3673 45.3128 48.6277 45.5739 48.949 45.5739Z" fill="#FF4948"/>
<path d="M54.5805 55.6171L51.6307 53.3419C51.376 53.1469 51.0121 53.1951 50.8167 53.4498C50.6213 53.7044 50.668 54.0695 50.9212 54.2665L53.2698 56.078L49.5307 58.945V52.0091C49.5307 51.6869 49.2702 51.4258 48.9489 51.4258C48.6276 51.4258 48.3672 51.6869 48.3672 52.0091V60.1253C48.3672 60.3473 48.4928 60.55 48.6912 60.6483C48.8897 60.7466 49.1265 60.7235 49.3024 60.5887L54.5791 56.5428C54.7228 56.4326 54.8072 56.2617 54.8075 56.0802C54.8078 55.8989 54.7239 55.7277 54.5805 55.6171Z" fill="#FF4948"/>
<ellipse cx="48.3701" cy="48.5" rx="34.4072" ry="34.5" stroke="#FDD8D8" stroke-width="2" stroke-linecap="round"/>
</svg>
