<svg width="98" height="98" viewBox="0 0 98 98" fill="none" xmlns="http://www.w3.org/2000/svg">
<path opacity="0.5" d="M96.7398 49C96.7398 75.5097 75.3073 97 48.8689 97C22.4306 97 0.998047 75.5097 0.998047 49C0.998047 22.4903 22.4306 1 48.8689 1C75.3073 1 96.7398 22.4903 96.7398 49ZM5.68705 49C5.68705 72.913 25.0202 92.2983 48.8689 92.2983C72.7176 92.2983 92.0508 72.913 92.0508 49C92.0508 25.087 72.7176 5.70166 48.8689 5.70166C25.0202 5.70166 5.68705 25.087 5.68705 49Z" fill="#F68080"/>
<path d="M94.5405 49C96.3055 49 97.7472 50.4327 97.6325 52.1939C96.8623 64.0234 91.834 75.2147 83.4232 83.6482C74.2586 92.8375 61.8288 98 48.8682 98C35.9075 98 23.4777 92.8375 14.3131 83.6482C5.90227 75.2147 0.873981 64.0234 0.103824 52.1939C-0.0108422 50.4327 1.43079 49 3.19577 49V49C4.96075 49 6.3791 50.4329 6.51099 52.1929C7.26995 62.3211 11.6207 71.8851 18.8327 79.1165C26.7986 87.1039 37.6027 91.5912 48.8682 91.5912C60.1337 91.5912 70.9377 87.1039 78.9037 79.1165C86.1156 71.8851 90.4664 62.3211 91.2253 52.1929C91.3572 50.4329 92.7756 49 94.5405 49V49Z" fill="#FF4948"/>
<ellipse cx="48.3701" cy="48.5" rx="34.4072" ry="34.5" stroke="#FDD8D8" stroke-width="2" stroke-linecap="round"/>
<g clip-path="url(#clip0_4186_29)">
<path d="M38.2853 40.5521C38.0343 40.3004 37.6274 40.3003 37.3763 40.552C35.8704 42.0616 35.041 44.0672 35.041 46.1993C35.041 48.3315 35.8704 50.337 37.3763 51.8467C37.5018 51.9725 37.6663 52.0354 37.8308 52.0354C37.9953 52.0354 38.1599 51.9724 38.2853 51.8465C38.5364 51.5948 38.5363 51.1867 38.2853 50.935C37.0222 49.6689 36.3267 47.9871 36.3267 46.1992C36.3267 44.4115 37.0222 42.7296 38.2853 41.4635C38.5363 41.2119 38.5364 40.8038 38.2853 40.5521Z" fill="#FF4948"/>
<path d="M56.1561 43.74C55.8012 43.74 55.5133 44.0286 55.5133 44.3845V45.3756H54.0638V38.5103C54.0638 35.3648 51.5088 32.8057 48.3683 32.8057C45.2287 32.8057 42.6745 35.3648 42.6745 38.5103V45.3756H41.225V44.3846C41.225 44.0287 40.9373 43.7401 40.5823 43.7401C40.2272 43.7401 39.9395 44.0287 39.9395 44.3846V48.187C39.9395 51.9726 42.4376 55.1845 45.8687 56.2543V59.7327H43.6453C42.4167 59.7327 41.4172 60.7335 41.4172 61.9635V63.3162C41.4172 63.8004 41.811 64.1943 42.2951 64.1943H45.482C45.8371 64.1943 46.1248 63.9057 46.1248 63.5498C46.1248 63.1939 45.8371 62.9053 45.482 62.9053H42.7028V61.9635C42.7028 61.4442 43.1257 61.0218 43.6453 61.0218H53.0931C53.6117 61.0218 54.0337 61.4443 54.0337 61.9635V62.9053H51.2546C50.8997 62.9053 50.6118 63.1939 50.6118 63.5498C50.6118 63.9057 50.8997 64.1943 51.2546 64.1943H54.4433C54.9264 64.1943 55.3193 63.8004 55.3193 63.3162V61.9635C55.3193 60.7335 54.3206 59.7327 53.0931 59.7327H50.8678V56.2544C54.2999 55.1848 56.799 51.9728 56.799 48.187V44.3846C56.7989 44.0286 56.5111 43.74 56.1561 43.74V43.74ZM43.96 38.5103C43.96 36.0756 45.9375 34.0947 48.3682 34.0947C50.7999 34.0947 52.7782 36.0756 52.7782 38.5103V40.6405H43.96V38.5103ZM43.96 41.9295H52.7782V43.6105H43.96V41.9295ZM43.96 44.8995H52.7782V48.187C52.7782 50.6217 50.8 52.6026 48.3683 52.6026C45.9376 52.6026 43.9601 50.6217 43.9601 48.187V44.8995H43.96ZM49.5822 59.7326H47.1543V56.5454C47.5508 56.603 47.956 56.6334 48.3683 56.6334C48.7805 56.6334 49.1857 56.603 49.5822 56.5455V59.7326H49.5822ZM55.5133 48.187C55.5133 52.1335 52.3081 55.3443 48.3683 55.3443C44.4295 55.3443 41.225 52.1336 41.225 48.187V46.6647H42.6745V48.187C42.6745 51.3325 45.2287 53.8916 48.3683 53.8916C51.5088 53.8916 54.0638 51.3325 54.0638 48.187V46.6647H55.5133V48.187Z" fill="#FF4948"/>
<path d="M61.5736 38.337C61.3225 38.0853 60.9154 38.0857 60.6646 38.3374C60.4137 38.5892 60.4139 38.9974 60.665 39.249C62.5193 41.1066 63.5405 43.5751 63.5405 46.1997C63.5405 48.8243 62.5193 51.2928 60.665 53.1504C60.414 53.402 60.4138 53.8101 60.6647 54.062C60.7902 54.1879 60.9548 54.251 61.1194 54.251C61.2838 54.251 61.4482 54.188 61.5737 54.0624C63.671 51.9612 64.8261 49.1688 64.8261 46.1997C64.8261 43.2305 63.671 40.4381 61.5736 38.337V38.337Z" fill="#FF4948"/>
<path d="M59.3628 40.5519C59.1115 40.3002 58.7046 40.3005 58.4537 40.5522C58.2028 40.8041 58.203 41.2122 58.4541 41.4638C59.7179 42.7299 60.4139 44.4116 60.4139 46.1994C60.4139 47.9871 59.7179 49.6689 58.4541 50.935C58.203 51.1866 58.2028 51.5947 58.4537 51.8466C58.5792 51.9725 58.7438 52.0355 58.9084 52.0355C59.0728 52.0355 59.2372 51.9726 59.3627 51.8469C60.8696 50.3373 61.6995 48.3317 61.6995 46.1994C61.6995 44.0671 60.8696 42.0615 59.3628 40.5519V40.5519Z" fill="#FF4948"/>
<path d="M33.1997 46.1997C33.1997 43.575 34.2204 41.1065 36.0739 39.2488C36.3249 38.9972 36.3251 38.5892 36.0741 38.3373C35.823 38.0855 35.4161 38.0855 35.165 38.3372C33.0686 40.4383 31.9141 43.2306 31.9141 46.1997C31.9141 49.1688 33.0686 51.9612 35.165 54.0622C35.2905 54.188 35.455 54.251 35.6194 54.251C35.784 54.251 35.9485 54.188 36.0741 54.062C36.325 53.8103 36.3249 53.4022 36.0739 53.1505C34.2204 51.2929 33.1997 48.8244 33.1997 46.1997V46.1997Z" fill="#FF4948"/>
<path d="M48.3694 62.9053C48.0143 62.9053 47.7266 63.1939 47.7266 63.5498C47.7266 63.9057 48.0143 64.1943 48.3694 64.1943H48.373C48.728 64.1943 49.014 63.9057 49.014 63.5498C49.014 63.1939 48.7244 62.9053 48.3694 62.9053V62.9053Z" fill="#FF4948"/>
</g>
<defs>
<clipPath id="clip0_4186_29">
<rect width="32.9112" height="33" fill="white" transform="translate(31.9141 32)"/>
</clipPath>
</defs>
</svg>
