<?xml version="1.0" standalone="no"?>
<!DOCTYPE svg PUBLIC "-//W3C//DTD SVG 20010904//EN"
 "http://www.w3.org/TR/2001/REC-SVG-20010904/DTD/svg10.dtd">
<svg version="1.0" xmlns="http://www.w3.org/2000/svg"
 width="584.000000pt" height="584.000000pt" viewBox="0 0 584.000000 584.000000"
 preserveAspectRatio="xMidYMid meet">
<metadata>
Created by potrace 1.14, written by Peter Selinger 2001-2017
</metadata>
<g transform="translate(0.000000,584.000000) scale(0.100000,-0.100000)"
fill="#000000" stroke="none">
<path d="M2769 5556 c-2 -3 -38 -8 -79 -11 -85 -7 -130 -14 -142 -21 -4 -3 -8
1 -8 8 0 8 -3 9 -8 3 -4 -5 -18 -11 -32 -13 -59 -7 -85 -10 -85 -12 0 -3 -39
-10 -67 -13 -16 -1 -28 -5 -28 -8 0 -3 -6 -6 -12 -6 -16 -1 -54 -9 -93 -21
-23 -7 -29 -14 -28 -31 2 -13 -1 -20 -7 -16 -6 4 -7 -2 -2 -17 9 -27 8 -70 -2
-86 -3 -6 -3 -13 2 -16 10 -6 9 -57 -1 -73 -5 -7 -4 -13 0 -13 5 0 9 -9 10
-20 1 -11 -2 -18 -8 -15 -5 4 -6 -3 -1 -17 9 -27 8 -70 -2 -86 -3 -6 -3 -13 2
-16 10 -6 9 -57 -1 -73 -5 -7 -4 -13 0 -13 5 0 9 -9 10 -20 1 -13 -2 -18 -9
-14 -7 5 -8 2 -4 -5 13 -20 14 -121 2 -114 -6 4 -5 0 1 -8 10 -12 10 -18 1
-27 -7 -7 -8 -12 -2 -12 5 0 10 -9 11 -20 1 -13 -2 -18 -9 -14 -7 5 -8 2 -3
-6 13 -21 14 -80 1 -73 -6 4 -6 0 1 -8 10 -12 10 -18 1 -27 -7 -7 -8 -12 -2
-12 5 0 10 -9 11 -20 1 -11 -2 -18 -8 -15 -5 4 -5 -3 0 -18 5 -13 5 -30 1 -37
-5 -8 -6 -19 -2 -25 10 -16 9 -59 -1 -72 -6 -8 -6 -13 0 -13 5 0 9 -9 10 -20
1 -11 -2 -18 -8 -15 -5 4 -6 -3 -1 -17 9 -27 8 -70 -2 -86 -3 -6 -2 -13 2 -16
10 -6 8 -48 -2 -65 -4 -5 -3 -12 2 -15 10 -6 9 -57 -1 -73 -5 -7 -4 -13 0 -13
5 0 9 -9 10 -20 1 -11 -2 -18 -7 -15 -6 3 -7 -1 -4 -9 5 -13 11 -12 42 7 21
13 60 34 87 47 28 14 52 27 55 30 3 3 14 7 25 8 11 2 23 8 26 14 3 5 9 9 13 9
11 -2 61 12 71 20 6 4 24 10 40 13 17 2 30 5 30 6 0 2 9 4 20 6 11 2 39 8 63
14 24 6 47 8 52 5 5 -3 11 -1 14 3 3 5 19 8 36 7 16 -1 30 1 30 4 0 9 43 6 58
-3 7 -4 12 -3 12 1 0 13 103 10 112 -2 5 -7 8 -6 8 1 0 6 10 10 23 8 12 -1 22
-3 22 -4 0 -2 83 -10 133 -13 12 -1 22 -5 22 -8 0 -3 6 -6 13 -6 23 -1 65 -11
84 -21 10 -5 24 -7 31 -5 6 3 12 0 12 -6 0 -6 7 -8 15 -5 8 4 15 1 15 -7 0 -7
3 -9 7 -6 3 4 12 2 20 -4 7 -6 13 -8 13 -4 0 4 11 0 25 -9 14 -9 25 -14 25
-11 0 6 152 -73 160 -83 3 -4 22 -16 43 -27 20 -11 37 -23 37 -27 0 -5 6 -8
14 -8 8 0 17 -7 20 -16 4 -9 9 -14 12 -11 3 3 13 -2 23 -11 10 -9 34 -32 54
-50 20 -18 37 -38 37 -44 0 -6 3 -9 6 -5 8 8 34 -18 34 -33 0 -6 4 -8 10 -5 5
3 10 2 10 -4 0 -6 10 -21 23 -34 12 -13 33 -38 47 -56 14 -18 31 -39 38 -47 7
-8 10 -14 5 -14 -4 0 -3 -4 2 -8 13 -9 34 -42 41 -64 4 -10 11 -18 16 -18 5 0
7 -4 4 -9 -3 -5 1 -14 9 -21 8 -7 12 -16 9 -21 -3 -5 0 -9 6 -9 6 0 8 -4 5
-10 -3 -5 -1 -10 4 -10 6 0 11 -6 11 -12 0 -7 7 -26 15 -42 8 -15 12 -32 9
-37 -3 -5 -1 -9 4 -9 5 0 12 -10 15 -22 3 -13 14 -54 26 -92 11 -38 23 -86 26
-107 3 -21 8 -53 11 -71 3 -18 6 -68 7 -110 1 -43 6 -78 10 -78 5 0 5 -5 1
-12 -5 -7 -9 -40 -11 -73 -1 -33 -4 -71 -7 -85 -2 -14 -7 -45 -11 -70 -4 -24
-10 -51 -15 -60 -4 -8 -6 -23 -5 -32 2 -10 -1 -18 -6 -18 -5 0 -9 -10 -9 -23
0 -13 -3 -27 -7 -31 -4 -3 -8 -14 -10 -24 -1 -10 -14 -45 -29 -77 -15 -33 -28
-62 -29 -65 -3 -12 -31 -66 -38 -75 -4 -5 -27 -39 -50 -74 -23 -35 -49 -73
-57 -85 -15 -22 -103 -118 -128 -140 -7 -6 -27 -24 -45 -41 -50 -46 -115 -95
-126 -95 -6 0 -11 -4 -11 -10 0 -5 -4 -10 -10 -10 -5 0 -19 -8 -30 -18 -11 -9
-24 -17 -28 -17 -4 0 -18 -8 -32 -17 -14 -9 -32 -18 -40 -20 -8 -2 -21 -9 -28
-16 -8 -7 -18 -10 -23 -7 -5 4 -9 1 -9 -4 0 -6 -3 -10 -7 -9 -5 1 -24 -5 -44
-14 -20 -9 -50 -19 -68 -23 -17 -3 -31 -11 -31 -16 0 -6 -4 -8 -9 -5 -5 4 -20
2 -34 -3 -13 -5 -37 -12 -53 -15 -16 -3 -40 -7 -54 -10 -14 -3 -48 -7 -77 -10
-28 -2 -57 -7 -62 -11 -6 -3 -11 0 -11 7 0 8 -3 9 -8 3 -7 -10 -152 -15 -152
-5 0 3 -19 5 -43 6 -60 1 -135 11 -187 24 -25 7 -53 13 -62 15 -9 2 -26 9 -37
15 -12 6 -21 8 -21 4 0 -3 -7 -1 -15 6 -8 7 -15 9 -15 5 0 -4 -7 -1 -16 6 -9
8 -22 14 -28 14 -28 2 -65 18 -60 26 3 5 -6 9 -20 9 -14 0 -26 5 -26 10 0 6
-7 10 -15 10 -8 0 -15 5 -15 12 0 6 -3 9 -6 5 -5 -5 -130 69 -161 97 -7 6 -29
25 -48 41 -53 44 -145 133 -145 140 0 3 -12 17 -26 30 -15 14 -24 25 -21 25 6
0 -21 35 -51 66 -7 8 -10 14 -5 14 4 0 3 4 -3 8 -6 4 -21 27 -35 52 -13 25
-27 47 -31 50 -9 7 -32 63 -30 73 1 4 -2 7 -8 7 -5 0 -10 9 -10 19 0 11 -6 26
-13 33 -7 7 -13 15 -13 18 0 3 -4 16 -8 30 -5 14 -9 32 -11 40 -1 8 -4 22 -8
30 -15 40 -29 96 -32 128 -2 21 -4 37 -5 37 -4 0 -10 47 -13 97 -1 32 -6 58
-10 58 -5 0 -5 5 -1 12 9 14 12 58 4 58 -7 0 -4 86 4 99 4 6 2 11 -4 11 -6 0
-8 5 -5 11 10 16 13 59 5 59 -10 0 -8 20 3 38 5 7 3 12 -3 12 -6 0 -8 5 -5 11
10 16 13 59 5 59 -10 0 -8 20 3 38 5 7 3 12 -3 12 -6 0 -8 5 -5 11 10 16 13
59 5 59 -10 0 -8 20 3 38 5 7 3 12 -3 12 -6 0 -8 5 -5 11 10 16 13 59 5 59
-10 0 -8 20 3 38 5 7 3 12 -3 12 -6 0 -8 5 -5 11 9 14 14 59 6 59 -3 0 -4 81
-1 180 3 99 2 180 -2 180 -8 0 -5 21 5 38 5 7 3 12 -3 12 -6 0 -8 5 -5 11 10
16 13 59 5 59 -10 0 -8 20 3 38 5 7 3 12 -3 12 -6 0 -8 5 -5 11 10 16 13 59 5
59 -10 0 -8 20 3 38 5 7 3 12 -3 12 -6 0 -8 5 -5 11 10 16 13 59 5 59 -10 0
-8 20 3 38 5 7 3 12 -3 12 -6 0 -8 5 -5 11 10 16 13 59 5 59 -10 0 -8 20 3 38
5 7 3 12 -3 12 -6 0 -8 5 -5 11 10 16 13 59 5 59 -10 0 -8 20 3 38 5 7 3 12
-3 12 -6 0 -8 5 -5 11 10 16 13 59 5 59 -10 0 -8 20 3 38 5 7 3 12 -3 12 -6 0
-8 5 -5 11 10 16 13 59 5 59 -10 0 -8 20 3 38 5 7 3 12 -3 12 -7 0 -8 6 0 19
7 14 7 22 0 26 -8 5 -7 11 1 21 9 11 9 14 0 14 -7 0 -9 5 -6 11 10 16 13 59 5
59 -10 0 -8 20 3 38 5 7 3 12 -3 12 -6 0 -8 5 -5 11 10 16 13 59 5 59 -9 0 -7
26 2 35 8 9 -3 45 -14 45 -5 0 -14 -5 -21 -10 -25 -21 -88 -60 -97 -60 -6 0
-10 -4 -10 -10 0 -5 -7 -10 -15 -10 -8 0 -15 -4 -15 -9 0 -5 -13 -14 -30 -21
-16 -7 -27 -16 -24 -21 3 -5 -2 -9 -11 -9 -8 0 -18 -7 -21 -15 -4 -8 -11 -15
-18 -15 -6 0 -28 -16 -49 -35 -21 -19 -40 -35 -42 -35 -13 0 -209 -192 -285
-279 -25 -28 -58 -65 -73 -81 -16 -17 -26 -30 -23 -30 3 0 -2 -9 -12 -19 -25
-28 -34 -40 -72 -96 -19 -27 -37 -51 -42 -53 -4 -2 -8 -8 -8 -13 0 -5 -20 -40
-45 -79 -25 -38 -42 -70 -39 -70 3 0 -2 -7 -10 -16 -9 -8 -16 -22 -16 -30 0
-8 -3 -14 -7 -14 -5 0 -21 -32 -38 -70 -16 -38 -33 -70 -37 -70 -5 0 -8 -9 -8
-20 0 -11 -5 -20 -12 -20 -6 0 -9 -3 -5 -6 3 -4 -2 -23 -13 -44 -11 -21 -16
-40 -13 -44 4 -3 1 -6 -5 -6 -7 0 -11 -3 -10 -7 2 -13 -14 -67 -25 -80 -5 -7
-6 -13 -2 -13 4 0 2 -6 -4 -13 -6 -8 -13 -24 -15 -38 -3 -13 -5 -25 -7 -26 -1
-2 -3 -7 -4 -13 -1 -5 -3 -11 -5 -12 -1 -2 -3 -10 -5 -18 -2 -8 -13 -53 -25
-100 -12 -47 -24 -94 -26 -105 -2 -11 -6 -31 -9 -45 -3 -14 -8 -45 -11 -70 -3
-25 -8 -56 -10 -70 -21 -120 -34 -398 -19 -404 6 -3 4 -5 -3 -5 -7 -1 -10 -6
-6 -12 3 -6 7 -39 8 -73 1 -34 6 -68 10 -75 7 -10 5 -12 -4 -6 -9 6 -11 4 -5
-5 8 -12 13 -45 16 -107 1 -18 5 -33 8 -33 3 0 7 -21 8 -48 1 -44 9 -97 14
-97 1 0 3 -9 5 -20 6 -39 16 -81 35 -150 11 -38 22 -81 25 -95 3 -13 11 -31
17 -39 7 -8 10 -15 8 -15 -5 -1 18 -74 28 -91 3 -5 7 -18 8 -28 2 -10 10 -29
19 -42 9 -14 14 -25 10 -25 -3 0 3 -15 14 -34 10 -19 20 -43 22 -53 2 -10 6
-20 9 -23 4 -3 23 -39 44 -80 21 -41 43 -78 49 -82 6 -4 8 -8 3 -8 -7 0 9 -27
92 -155 53 -80 58 -87 89 -120 13 -14 19 -25 15 -25 -4 -1 3 -10 16 -20 13
-11 20 -20 16 -20 -5 0 4 -11 19 -25 14 -13 26 -28 26 -33 0 -6 7 -13 16 -16
9 -4 15 -9 12 -11 -7 -7 271 -285 284 -285 3 0 25 -18 49 -40 24 -22 52 -43
62 -46 9 -3 17 -9 17 -14 0 -5 14 -17 32 -26 18 -9 38 -22 45 -30 20 -20 158
-104 171 -104 7 0 12 -4 12 -9 0 -5 13 -14 30 -21 17 -7 30 -17 30 -22 0 -5 4
-7 9 -3 5 3 17 -2 25 -11 9 -8 16 -13 16 -10 0 3 24 -7 53 -22 28 -14 55 -25
60 -24 4 1 7 -2 7 -6 0 -4 25 -16 55 -27 30 -10 55 -22 55 -27 0 -5 4 -6 10
-3 5 3 20 -1 34 -10 13 -9 28 -15 32 -14 5 1 23 -4 39 -11 32 -14 38 -16 70
-24 11 -2 33 -9 49 -15 16 -7 31 -9 34 -6 3 2 10 1 16 -4 6 -5 25 -11 41 -14
17 -3 41 -9 55 -14 14 -5 32 -9 40 -8 8 1 22 -2 30 -6 8 -3 35 -9 60 -12 25
-4 58 -9 74 -12 15 -3 47 -8 70 -10 22 -2 73 -7 111 -11 120 -13 446 -7 461 8
3 4 15 3 25 -3 11 -5 19 -6 19 -1 0 4 10 8 23 9 26 1 99 11 130 18 37 8 81 16
107 20 14 2 25 4 25 5 0 2 20 7 60 15 17 3 39 9 50 12 11 4 26 8 33 10 32 8
42 11 117 38 28 9 56 17 63 18 6 0 12 4 12 9 0 5 4 7 9 3 5 -3 12 -1 15 4 5 8
63 25 79 22 4 0 7 3 7 8 0 5 10 13 23 17 37 11 172 78 179 89 4 5 8 6 8 2 0
-5 14 1 30 13 17 12 30 18 30 13 0 -4 4 -3 8 4 4 6 14 13 21 15 8 2 22 10 32
18 39 33 47 39 51 34 3 -2 13 5 23 16 10 11 23 20 29 20 7 0 27 13 46 30 19
16 40 29 46 30 7 0 14 7 18 15 3 8 10 15 16 15 6 0 28 16 48 35 20 19 40 35
43 35 7 0 50 39 143 128 26 26 53 46 58 44 5 -1 7 2 4 7 -3 5 1 11 9 15 8 3
15 12 15 19 0 7 11 20 25 27 14 7 23 15 21 17 -2 2 16 25 40 51 24 26 43 51
43 55 0 5 10 18 24 30 27 25 87 102 87 111 0 4 11 19 25 34 14 15 25 31 25 35
0 5 12 24 26 43 15 19 23 34 19 34 -3 0 0 7 7 15 30 34 55 76 56 99 0 5 5 12
10 15 10 6 112 213 116 234 1 7 10 29 20 49 10 20 19 45 21 55 2 10 4 20 5 23
1 3 2 8 1 13 0 4 4 7 10 7 6 0 9 7 5 15 -3 8 -1 15 4 15 6 0 10 8 10 18 0 9 7
36 15 60 9 24 17 53 19 65 3 12 5 22 6 22 5 0 23 89 22 108 0 9 3 17 8 17 4 0
7 13 6 30 -1 16 1 31 5 32 5 2 11 32 14 68 3 35 11 67 17 71 7 4 7 9 -1 13 -6
4 -9 11 -6 16 8 13 15 91 20 225 2 66 5 122 6 125 1 3 0 10 -1 15 -1 6 -4 53
-7 105 -7 133 -8 143 -16 158 -5 7 -3 12 4 12 8 0 8 4 -1 15 -7 8 -10 21 -7
29 3 8 3 17 0 20 -4 3 -8 16 -9 29 -7 60 -20 139 -24 145 -3 2 -3 2 -15 57 -4
22 -10 46 -12 53 -1 6 -5 20 -7 30 -3 9 -5 17 -6 17 -1 0 -3 11 -6 24 -2 14
-9 30 -15 38 -6 7 -9 13 -5 13 3 0 0 15 -8 34 -8 19 -12 37 -8 40 3 3 1 6 -5
6 -5 0 -10 7 -11 15 -1 8 -3 22 -4 30 -1 8 -6 15 -11 15 -6 0 -8 3 -4 6 3 4 0
19 -9 35 -8 16 -12 29 -9 29 4 0 -1 7 -9 16 -9 8 -14 20 -11 25 4 5 1 9 -4 9
-6 0 -11 9 -11 19 0 11 -5 23 -10 26 -6 4 -8 10 -5 15 3 4 -2 13 -10 20 -8 7
-15 21 -15 31 0 11 -4 19 -10 19 -5 0 -10 9 -10 20 0 11 -4 20 -10 20 -5 0
-10 7 -10 15 0 8 -5 15 -11 15 -5 0 -8 4 -5 9 3 5 -3 19 -13 32 -10 13 -26 41
-36 62 -9 20 -21 37 -26 37 -5 0 -9 5 -9 11 0 12 -80 133 -92 137 -4 2 -8 8
-8 14 0 6 -10 19 -22 29 -11 11 -17 19 -12 19 5 0 2 6 -6 13 -8 7 -34 37 -58
69 -24 31 -50 59 -59 62 -9 4 -14 9 -11 12 7 6 -140 154 -153 154 -6 0 -8 3
-6 8 2 4 -7 17 -20 29 -13 12 -23 20 -23 17 0 -3 -11 7 -25 21 -14 14 -30 25
-36 25 -6 0 -7 5 -4 10 3 6 0 10 -9 10 -8 0 -16 4 -18 8 -7 17 -250 192 -267
192 -5 0 -11 3 -13 8 -4 9 -57 41 -80 49 -10 3 -18 9 -18 14 0 5 -9 9 -19 9
-11 0 -21 3 -23 8 -4 10 -161 88 -170 84 -5 -1 -8 3 -8 10 0 6 -3 8 -6 5 -4
-3 -16 -1 -28 5 -11 7 -23 13 -26 13 -3 0 -15 6 -27 13 -13 7 -23 11 -23 8 0
-3 -24 6 -52 18 -52 23 -116 42 -130 38 -5 -1 -8 3 -8 8 0 5 -3 9 -7 8 -5 -1
-20 2 -34 6 -14 4 -34 9 -45 11 -10 2 -19 4 -19 5 0 3 -79 21 -110 25 -11 2
-20 4 -20 5 0 1 -11 3 -25 6 -14 2 -38 7 -55 10 -16 3 -44 7 -61 8 -17 1 -35
5 -40 8 -5 3 -21 4 -36 2 -16 -1 -28 0 -28 4 0 4 -28 8 -63 9 -217 9 -314 9
-331 0 -13 -6 -16 -6 -12 2 7 10 -6 16 -15 7z"/>
<path d="M2850 3720 c0 -3 -15 -5 -32 -5 -18 1 -48 -3 -67 -8 -31 -8 -41 -10
-91 -21 -11 -3 -26 -8 -33 -13 -6 -4 -14 -8 -17 -9 -31 -6 -60 -18 -60 -25 0
-5 -9 -9 -20 -9 -11 0 -20 -4 -20 -8 0 -5 -15 -16 -32 -25 -50 -26 -98 -64
-91 -71 4 -3 0 -6 -7 -6 -14 0 -80 -66 -80 -81 0 -6 -4 -7 -10 -4 -5 3 -10 0
-10 -9 0 -8 -3 -16 -7 -18 -12 -5 -65 -78 -57 -78 4 0 0 -8 -8 -17 -17 -21
-48 -86 -48 -102 0 -6 -5 -11 -11 -11 -5 0 -7 -4 -4 -10 3 -5 1 -19 -5 -30
-10 -19 -20 -63 -23 -102 -1 -10 -4 -18 -7 -18 -8 0 -4 -238 5 -270 3 -14 7
-29 8 -35 2 -5 6 -16 10 -22 5 -7 6 -13 3 -13 -9 0 36 -114 48 -122 6 -4 7 -8
2 -8 -5 0 -3 -7 4 -15 7 -8 9 -15 4 -15 -5 0 -4 -4 1 -8 13 -9 55 -69 55 -78
0 -4 11 -17 25 -30 14 -13 25 -27 25 -32 0 -4 21 -26 47 -48 25 -21 60 -51 76
-66 17 -15 34 -25 38 -23 4 3 9 -2 13 -10 3 -8 12 -15 21 -15 8 0 15 -5 15
-11 0 -5 5 -7 10 -4 6 3 10 1 10 -6 0 -7 3 -10 6 -6 4 3 21 -1 38 -11 42 -22
97 -42 119 -42 9 0 17 -4 17 -8 0 -4 10 -8 23 -9 42 -2 108 -12 117 -18 6 -3
10 -1 10 5 0 7 6 8 17 2 9 -6 29 -6 45 -2 17 5 28 5 28 -1 0 -6 8 -5 20 1 15
8 20 8 20 -2 0 -10 3 -10 9 1 5 8 16 11 25 8 9 -4 16 -3 16 2 0 4 10 7 23 6
12 -1 27 1 32 6 6 4 23 9 37 11 15 2 30 7 34 11 4 4 16 7 26 7 10 0 18 5 18
12 0 6 3 8 6 5 9 -9 108 46 169 94 59 46 120 99 113 99 -3 0 12 19 33 41 21
23 36 45 34 50 -3 4 1 11 8 16 16 9 42 54 39 66 -1 4 3 7 8 7 5 0 9 3 8 8 0 4
7 25 17 47 10 22 18 46 18 53 0 6 4 12 9 12 5 0 6 4 3 10 -3 5 -2 18 4 28 5
10 13 38 16 63 9 58 13 231 6 244 -3 6 -6 19 -7 30 -1 11 -5 29 -7 40 -3 11
-8 34 -12 50 -4 17 -12 36 -18 43 -5 6 -6 12 -3 12 4 0 1 10 -6 23 -7 12 -13
24 -14 27 -8 28 -30 70 -36 70 -4 0 -8 7 -8 15 0 8 -4 15 -10 15 -5 0 -10 7
-10 15 0 7 -8 19 -17 24 -10 6 -14 11 -9 11 5 0 -5 14 -22 30 -18 17 -30 30
-27 30 2 0 -11 16 -31 35 -19 19 -37 35 -39 35 -3 0 -19 12 -35 26 -32 29 -41
34 -118 76 -28 14 -53 24 -56 21 -3 -4 -6 -1 -6 5 0 7 -7 12 -15 12 -8 0 -23
4 -33 9 -23 12 -119 34 -148 34 -13 0 -24 2 -24 6 0 3 -32 6 -70 6 -39 0 -70
-2 -70 -5z"/>
</g>
</svg>
